HIERARCHY
ROOT Hips
{
	OFFSET 0.00000 0.00000 0.00000
	CHANNELS 6 Xposition Yposition Zposition Zrotation Yrotation Xrotation 
	JOINT LHipJoint
	{
		OFFSET 0 0 0
		CHANNELS 3 Zrotation Yrotation Xrotation
		JOINT LeftUpLeg
		{
			OFFSET 1.54859 -1.61379 0.86856
			CHANNELS 3 Zrotation Yrotation Xrotation
			JOINT LeftLeg
			{
				OFFSET 2.25087 -6.18423 0.00000
				CHANNELS 3 Zrotation Yrotation Xrotation
				JOINT LeftFoot
				{
					OFFSET 2.40328 -6.60297 0.00000
					CHANNELS 3 Zrotation Yrotation Xrotation
					JOINT LeftToeBase
					{
						OFFSET 0.17435 -0.47901 2.02453
						CHANNELS 3 Zrotation Yrotation Xrotation
						End Site
						{
							OFFSET 0.00000 -0.00000 1.04844
						}
					}
				}
			}
		}
	}
	JOINT RHipJoint
	{
		OFFSET 0 0 0
		CHANNELS 3 Zrotation Yrotation Xrotation
		JOINT RightUpLeg
		{
			OFFSET -1.54669 -1.61379 0.86856
			CHANNELS 3 Zrotation Yrotation Xrotation
			JOINT RightLeg
			{
				OFFSET -2.28132 -6.26789 0.00000
				CHANNELS 3 Zrotation Yrotation Xrotation
				JOINT RightFoot
				{
					OFFSET -2.51636 -6.91365 0.00000
					CHANNELS 3 Zrotation Yrotation Xrotation
					JOINT RightToeBase
					{
						OFFSET -0.15124 -0.41552 2.21090
						CHANNELS 3 Zrotation Yrotation Xrotation
						End Site
						{
							OFFSET -0.00000 -0.00000 1.13399
						}
					}
				}
			}
		}
	}
	JOINT LowerBack
	{
		OFFSET 0 0 0
		CHANNELS 3 Zrotation Yrotation Xrotation
		JOINT Spine
		{
			OFFSET -0.04287 2.26161 -0.25690
			CHANNELS 3 Zrotation Yrotation Xrotation
			JOINT Spine1
			{
				OFFSET 0.02248 2.28395 -0.10140
				CHANNELS 3 Zrotation Yrotation Xrotation
				JOINT Neck
				{
					OFFSET 0 0 0
					CHANNELS 3 Zrotation Yrotation Xrotation
					JOINT Neck1
					{
						OFFSET -0.11644 1.38496 0.11345
						CHANNELS 3 Zrotation Yrotation Xrotation
						JOINT Head
						{
							OFFSET 0.29383 1.36600 0.06642
							CHANNELS 3 Zrotation Yrotation Xrotation
							End Site
							{
								OFFSET 0.11075 1.41395 -0.00294
							}
						}
					}
				}
				JOINT LeftShoulder
				{
					OFFSET 0 0 0
					CHANNELS 3 Zrotation Yrotation Xrotation
					JOINT LeftArm
					{
						OFFSET 3.51628 0.59542 -0.30346
						CHANNELS 3 Zrotation Yrotation Xrotation
						JOINT LeftForeArm
						{
							OFFSET 4.76405 -0.00000 0.00000
							CHANNELS 3 Zrotation Yrotation Xrotation
							JOINT LeftHand
							{
								OFFSET 3.13759 -0.00000 -0.00000
								CHANNELS 3 Zrotation Yrotation Xrotation
								JOINT LeftFingerBase
								{
									OFFSET 0 0 0
									CHANNELS 3 Zrotation Yrotation Xrotation
									JOINT LeftHandIndex1
									{
										OFFSET 0.73226 -0.00000 -0.00000
										CHANNELS 3 Zrotation Yrotation Xrotation
										End Site
										{
											OFFSET 0.59037 -0.00000 -0.00000
										}
									}
								}
								JOINT LThumb
								{
									OFFSET 0 0 0
									CHANNELS 3 Zrotation Yrotation Xrotation
									End Site
									{
										OFFSET 0.59938 -0.00000 0.59938
									}
								}
							}
						}
					}
				}
				JOINT RightShoulder
				{
					OFFSET 0 0 0
					CHANNELS 3 Zrotation Yrotation Xrotation
					JOINT RightArm
					{
						OFFSET -3.30990 0.84213 -0.36430
						CHANNELS 3 Zrotation Yrotation Xrotation
						JOINT RightForeArm
						{
							OFFSET -5.10161 -0.00000 -0.00000
							CHANNELS 3 Zrotation Yrotation Xrotation
							JOINT RightHand
							{
								OFFSET -3.23267 -0.00000 -0.00000
								CHANNELS 3 Zrotation Yrotation Xrotation
								JOINT RightFingerBase
								{
									OFFSET 0 0 0
									CHANNELS 3 Zrotation Yrotation Xrotation
									JOINT RightHandIndex1
									{
										OFFSET -0.70200 -0.00000 -0.00000
										CHANNELS 3 Zrotation Yrotation Xrotation
										End Site
										{
											OFFSET -0.56597 -0.00000 -0.00000
										}
									}
								}
								JOINT RThumb
								{
									OFFSET 0 0 0
									CHANNELS 3 Zrotation Yrotation Xrotation
									End Site
									{
										OFFSET -0.57461 -0.00000 0.57461
									}
								}
							}
						}
					}
				}
			}
		}
	}
}
MOTION
Frames: 10
Frame Time: 0.0392157
0.00 0.00 0.00 -312.0720 68.6243 -302.9680 0.0000 0.0000 0.0000 -14.0345 4.0714 16.0075 0.9466 6.1964 17.3553 -0.2640 12.8852 5.0686 4.2086 -12.4329 -37.2812 0.0000 0.0000 0.0000 21.7342 5.1077 -65.0659 -17.1731 -19.8073 81.7090 -0.3806 -12.1074 -21.5427 -1.4927 -7.7180 21.8608 -16.3074 -5.4890 17.7943 0.4288 -9.6044 5.5705 11.1115 -4.8973 -0.9117 -15.6139 -6.6777 -5.4092 20.7129 -7.1016 -10.2103 8.9069 -3.3656 -0.5713 -0.0000 -0.0000 0.0000 -74.5179 9.5998 45.3199 69.8977 -58.4166 -42.6834 -0.0000 0.0000 -10.0121 42.5199 17.0087 15.0149 -7.1250 0.0000 -0.0000 15.1886 51.8852 2.6252 -0.0000 -0.0000 0.0000 82.9934 9.2091 -10.9516 -95.8295 59.8712 -65.0463 0.0000 -0.0000 -39.2402 -25.1129 18.9719 -8.6640 7.1250 -0.0000 -0.0000 2.0077 -9.1999 1.6619
0.00 0.00 0.00 -320.8200 64.3736 -310.3580 0.0000 0.0000 0.0000 -17.6212 5.2354 12.1236 2.9434 10.6029 30.9520 0.0938 7.1640 6.9652 3.0936 -10.8450 -31.7590 0.0000 0.0000 0.0000 21.8379 3.2766 -60.3055 -17.0693 -19.7928 81.4028 -0.4165 -12.3359 -22.1462 -1.4332 -7.5694 21.4136 -13.9174 -5.7423 14.3728 2.3941 -9.1711 4.7721 11.5202 -4.7736 -0.1787 -14.2214 -4.7843 -6.8798 12.6642 -4.8367 -9.5840 6.1234 -2.0956 -0.9946 0.0000 0.0000 0.0000 -78.8337 19.6127 52.4901 57.8808 -55.7183 -32.5838 -0.0000 0.0000 -13.8443 39.7558 17.8128 14.2772 -7.1250 0.0000 -0.0000 12.2253 52.2524 2.2096 0.0000 0.0000 0.0000 79.4718 15.5735 -3.0404 -114.2288 57.6613 -80.8180 0.0000 -0.0000 -20.4343 -22.5609 17.4222 -7.0908 7.1250 -0.0000 -0.0000 3.5431 -11.2393 2.7901
0.00 0.00 0.00 -330.7880 58.7601 -319.1920 0.0000 0.0000 0.0000 -19.6121 8.1957 4.0826 7.6676 15.8693 51.3565 0.1473 0.1268 7.2028 2.0275 -8.9231 -25.5552 0.0000 0.0000 0.0000 21.9177 2.7127 -50.9207 -15.8915 -19.5904 77.9082 -0.9400 -7.0678 -22.1818 -0.0016 -0.2590 0.7116 -11.5344 -4.5650 12.1799 3.4449 -7.0295 5.3236 10.9078 -3.7917 0.7850 -11.7057 -3.3345 -7.4286 8.4696 -3.0701 -11.4392 4.4721 -1.1789 -1.8603 0.0000 -0.0000 0.0000 -84.3860 27.6980 55.1766 41.6032 -48.9915 -19.6406 -0.0000 0.0000 -19.9433 34.6746 20.8072 13.8061 -7.1250 0.0000 -0.0000 6.5723 54.6605 1.5648 0.0000 -0.0000 0.0000 78.0593 24.4673 8.8421 -122.9692 55.4654 -88.1175 0.0000 0.0000 0.1727 -20.3632 16.2143 -5.9171 7.1250 -0.0000 -0.0000 4.9278 -12.7943 3.7283
0.00 0.00 0.00 -337.9560 55.7195 -325.1770 0.0000 0.0000 0.0000 -18.2763 9.2219 -3.9852 12.8726 18.7357 68.7293 0.0198 3.1496 3.1304 1.6702 -8.1424 -23.1474 0.0000 0.0000 0.0000 23.1753 1.5324 -42.5126 -14.2090 -19.1762 72.8419 -1.5737 -3.1212 -24.9953 -0.7513 5.5364 -15.4451 -7.9281 -3.2352 11.6344 4.1325 -4.8098 5.9390 9.3626 -2.6226 0.8314 -10.5795 -2.9805 -7.6977 7.4486 -2.6244 -12.8131 3.9975 -0.9423 -2.3105 0.0000 0.0000 0.0000 -88.1627 32.4341 55.3837 30.1689 -41.0377 -11.5203 -0.0000 0.0000 -19.0724 31.0477 25.7605 14.6619 -7.1250 0.0000 -0.0000 1.4911 59.3646 0.5232 0.0000 0.0000 0.0000 76.0263 29.6813 18.7975 -124.1240 55.1069 -89.0668 0.0000 0.0000 14.0401 -21.1924 16.0191 -6.1071 7.1250 -0.0000 -0.0000 4.3625 -12.9014 3.2881
0.00 0.00 0.00 -347.3000 53.1587 -332.3130 0.0000 0.0000 0.0000 -13.0912 7.5488 -18.3183 20.6783 19.9890 91.9834 -0.0851 5.1717 -1.6748 1.0722 -6.5824 -18.4840 0.0000 0.0000 0.0000 25.6501 -0.0239 -33.1987 -12.0181 -18.3983 66.0461 -2.3186 2.2504 -28.2252 -1.5730 7.9134 -22.4514 -2.3392 -0.5962 13.2094 5.5581 -0.7080 6.3963 7.2924 -0.3942 -0.5493 -9.6098 -3.7328 -7.7615 6.5425 -3.6583 -15.0147 3.5852 -1.4249 -2.9126 -0.0000 -0.0000 0.0000 -88.9527 37.4699 60.0719 19.4387 -29.9602 -5.2481 -0.0000 0.0000 -16.2573 30.5881 31.4585 17.1446 -7.1250 0.0000 -0.0000 -1.3752 65.3762 -0.6772 -0.0000 -0.0000 0.0000 69.3715 34.1183 26.6313 -115.4797 57.3989 -81.8734 0.0000 0.0000 26.3822 -24.7584 19.2184 -8.6320 7.1250 -0.0000 -0.0000 2.2609 -8.9921 1.8812
0.00 0.00 0.00 -354.5610 51.2963 -338.6440 0.0000 0.0000 0.0000 -7.6255 5.3862 -29.5755 25.1381 19.3549 105.1798 0.0191 2.6294 -4.7808 1.0452 -6.5017 -18.2471 0.0000 0.0000 0.0000 28.2338 -2.4833 -25.8219 -10.3283 -17.5904 60.5802 -2.6310 5.4082 -29.5318 -1.5133 7.7686 -22.0135 3.1999 1.0171 15.9229 5.1899 2.1935 7.4139 3.2854 1.1869 -1.1333 -10.2423 -4.5895 -8.1488 8.4332 -4.4498 -16.5582 4.2934 -1.7979 -3.1673 -0.0000 0.0000 0.0000 -84.0410 42.6468 63.4868 18.5459 -28.8505 -4.8097 -0.0000 0.0000 -15.3920 30.9139 32.7823 17.9642 -7.1250 0.0000 -0.0000 -1.6953 66.8665 -0.8931 -0.0000 0.0000 0.0000 67.5955 36.1320 28.2322 -98.1116 59.7499 -67.0189 0.0000 0.0000 31.2794 -27.5669 23.9487 -11.9646 7.1250 -0.0000 -0.0000 1.0566 -3.3711 0.9928
0.00 0.00 0.00 -358.8520 48.6855 -342.2280 0.0000 0.0000 0.0000 -4.3911 3.4113 -41.5534 27.1915 18.7119 111.4704 0.1803 1.0583 -8.4783 1.1935 -6.9323 -19.5151 0.0000 0.0000 0.0000 28.7849 -5.2484 -18.3199 -8.3417 -16.3649 53.7845 -2.7306 5.9045 -30.0469 -2.3471 9.5544 -27.5454 6.0264 3.2098 17.9497 4.2790 5.5113 8.7739 0.1538 2.9413 -0.4717 -10.8552 -6.0918 -7.0402 11.0392 -6.0353 -20.1235 5.3278 -2.6089 -4.1230 -0.0000 0.0000 0.0000 -74.1724 46.9118 70.6129 23.1946 -34.3010 -7.2477 -0.0000 0.0000 -19.8894 30.4253 33.1059 17.7847 -7.1250 0.0000 -0.0000 -2.5670 67.0587 -1.3637 -0.0000 0.0000 0.0000 64.9371 38.2136 24.7296 -69.5045 58.3517 -42.3486 0.0000 0.0000 30.5197 -28.3541 26.5528 -13.5630 7.1250 -0.0000 -0.0000 0.9734 -0.3930 0.9669
0.00 0.00 0.00 -358.7100 44.9527 -341.6380 0.0000 0.0000 0.0000 -6.9824 -3.2114 -62.6450 24.2206 19.5675 102.4261 0.6585 1.7086 -16.0409 1.0365 -6.4753 -18.1699 0.0000 0.0000 0.0000 24.2045 -7.6628 -1.5457 -3.8945 -12.0187 35.7982 -1.2668 13.9698 -21.0071 -1.1380 6.7746 -19.0492 3.7982 7.6022 20.9596 1.5792 10.8253 10.7253 -2.5232 5.6307 0.5014 -13.2130 -9.5976 -5.5211 17.4428 -9.6507 -24.8116 7.9682 -4.5541 -4.7780 0.0000 0.0000 0.0000 -63.5359 45.6487 70.7550 32.9557 -43.2960 -13.3917 -0.0000 0.0000 -28.9899 28.9921 34.4876 17.4199 -7.1250 0.0000 -0.0000 -5.5198 68.0501 -3.0600 0.0000 0.0000 0.0000 57.8221 46.2642 4.9875 -19.5365 30.0798 -5.2971 0.0000 0.0000 42.7763 -23.6559 25.2928 -10.6005 7.1250 -0.0000 -0.0000 3.6170 -2.7382 3.4471
0.00 0.00 0.00 -358.1600 45.4169 -339.8120 0.0000 0.0000 0.0000 -9.7503 -5.7367 -69.4090 20.0262 20.0000 90.0767 0.7159 -1.6047 -15.5191 2.9160 -10.5578 -30.8027 0.0000 0.0000 0.0000 23.8394 -5.7207 6.9990 -2.1470 -9.1659 26.3155 -0.2910 10.2252 -11.2017 -1.3981 7.4799 -21.1453 2.1497 9.3327 21.9826 0.5089 12.7285 10.7986 -3.2702 6.5360 0.1287 -13.7791 -11.5323 -4.7298 20.3565 -11.7583 -26.9767 9.0881 -5.7583 -4.9188 -0.0000 -0.0000 0.0000 -64.2643 40.2377 65.2365 37.3870 -46.4433 -16.5199 -0.0000 0.0000 -32.9710 33.3908 35.5179 20.9537 -7.1250 0.0000 -0.0000 0.0961 70.5059 0.0585 -0.0000 -0.0000 0.0000 54.9858 48.8721 -31.9200 -8.6337 14.5748 -1.1061 0.0000 0.0000 50.7583 -22.9479 17.4572 -7.2388 7.1250 -0.0000 -0.0000 3.2905 -11.1486 2.5966
0.00 0.00 0.00 -362.2140 50.9066 -341.2980 0.0000 0.0000 0.0000 -13.5450 -6.3566 -72.5478 15.5283 19.5137 76.8231 0.0847 -12.5457 -9.8868 2.0117 -8.8905 -25.4533 0.0000 0.0000 0.0000 30.3741 -3.9877 12.4490 -1.7227 -8.2629 23.5153 -0.0000 0.1157 -0.1349 -1.7301 8.2797 -23.5670 4.7774 8.9918 22.5296 0.1699 12.8310 10.5540 -5.0834 6.7113 0.2727 -11.7306 -12.5293 -2.5202 22.8765 -12.4247 -30.5567 10.0317 -6.5566 -6.1848 -0.0000 0.0000 0.0000 -70.2465 30.2399 53.8682 42.1451 -49.2907 -20.0505 -0.0000 0.0000 -31.4057 36.4703 33.4035 22.1429 -7.1250 0.0000 -0.0000 6.1464 69.2436 3.5741 -0.0000 0.0000 0.0000 61.4013 42.5145 -46.5009 -11.9311 19.7012 -2.0790 0.0000 0.0000 19.2796 -24.5431 23.0532 -10.1380 7.1250 -0.0000 -0.0000 2.8056 -4.9334 2.5570
